<svg width="13" height="24" viewBox="0 0 13 24" fill="none" xmlns="http://www.w3.org/2000/svg">
<path d="M8.15081 21.8526C8.15813 22.9571 7.26865 23.8585 6.16411 23.8658C5.05956 23.8731 4.15822 22.9836 4.1509 21.8791L4.1244 17.8792C4.12074 17.3269 4.56548 16.8762 5.11775 16.8726L7.1177 16.8593C7.66998 16.8557 8.12065 17.3004 8.12431 17.8527L8.15081 21.8526Z" fill="#BCCCD5"/>
<path d="M0.587451 11.8998C0.572439 9.63422 1.2064 6.95646 2.24502 4.85257C2.76383 3.80165 3.37191 2.91791 4.02812 2.30232C4.68446 1.68663 5.356 1.36799 6.01776 1.3636C6.67952 1.35922 7.35522 1.66893 8.01966 2.27588C8.68397 2.88271 9.30371 3.75831 9.8364 4.80227C10.9028 6.89221 11.5722 9.56134 11.5872 11.8269C11.6021 14.0781 10.9703 15.4195 10.0371 16.2151C9.0868 17.0251 7.72873 17.3526 6.12377 17.3633C4.51881 17.3739 3.15652 17.0644 2.19561 16.267C1.25189 15.4839 0.602367 14.151 0.587451 11.8998Z" fill="#E21A1A" stroke="#E21A1A"/>
</svg>
