<svg width="160" height="136" viewBox="0 0 160 136" fill="none" xmlns="http://www.w3.org/2000/svg">
<path d="M109.5 17.1579C44.3 31.9579 16.6667 88.9912 15.5 115.658C68.5 130.991 203.7 152.458 144.5 115.658C70.5 69.6579 191 -1.34209 109.5 17.1579Z" fill="#E21A1A"/>
<path d="M115.001 52.1579C120.601 41.3579 117.334 23.6579 115.001 16.1579C145.401 7.35791 144 19.8246 139.5 27.1579C101.9 81.9579 127.167 105.658 144 114.658C134.334 116.325 113.101 118.658 105.501 114.658C96.0006 109.658 108.001 65.6579 115.001 52.1579Z" fill="#C11E1E"/>
<rect x="0.929688" y="113.158" width="155.609" height="9.8446" rx="4.9223" fill="#ACCAC6"/>
<circle cx="144.109" cy="15.2474" r="15.0938" fill="#ACCAC6"/>
</svg>
