<svg width="181" height="56" viewBox="0 0 181 56" fill="none" xmlns="http://www.w3.org/2000/svg">
<g clip-path="url(#clip0)">
<path d="M7.36072 49.1639L5.08699 44.1368L2.7964 49.1639H7.36072ZM4.5716 42.8434H5.62932L10.1936 52.7717H8.97761L7.802 50.1653H2.35176L1.16605 52.7717H0.00390625L4.5716 42.8434Z" fill="#394049"/>
<path d="M12.2002 45.4897H13.3017V46.7597C13.7868 45.9704 14.5615 45.3338 15.8348 45.3338C17.6235 45.3338 18.6677 46.5177 18.6677 48.2519V52.7717H17.5662V48.5172C17.5662 47.1675 16.8218 46.3219 15.5215 46.3219C14.2482 46.3219 13.3051 47.2371 13.3051 48.6001V52.7717H12.2036V45.4897H12.2002Z" fill="#394049"/>
<path d="M30.6121 50.099V49.4225C30.0697 49.2666 29.3523 49.1109 28.4529 49.1109C27.0819 49.1109 26.2937 49.7045 26.2937 50.6031C26.2937 51.5183 27.1526 52.0521 28.1564 52.0521C29.5106 52.0521 30.6121 51.2497 30.6121 50.099ZM25.1787 50.6329C25.1787 49.0677 26.4689 48.252 28.3383 48.252C29.285 48.252 29.9417 48.378 30.602 48.5604V48.3382C30.602 47.0416 29.8003 46.3652 28.4124 46.3652C27.54 46.3652 26.8528 46.574 26.1657 46.8857L25.8356 45.997C26.6508 45.6322 27.4357 45.3769 28.527 45.3769C29.5712 45.3769 30.3898 45.6588 30.9186 46.1795C31.4306 46.6868 31.6901 47.3897 31.6901 48.3183V52.7684H30.602V51.684C30.0867 52.3307 29.2445 52.9243 27.9409 52.9243C26.553 52.9276 25.1787 52.155 25.1787 50.6329Z" fill="#394049"/>
<path d="M35.4365 42.492H34.335V52.7752H35.4365V42.492Z" fill="#394049"/>
<path d="M39.4179 42.492H38.3164V52.7752H39.4179V42.492Z" fill="#394049"/>
<path d="M42.2914 52.7752H43.3929V45.4931H42.2914V52.7752ZM42.2207 43.8948H43.4805V42.701H42.2207V43.8948Z" fill="#394049"/>
<path d="M51.05 50.099V49.4225C50.5077 49.2666 49.7902 49.1109 48.8908 49.1109C47.5199 49.1109 46.7316 49.7045 46.7316 50.6031C46.7316 51.5183 47.5906 52.0521 48.5944 52.0521C49.9485 52.0521 51.05 51.2497 51.05 50.099ZM45.6133 50.6329C45.6133 49.0677 46.9034 48.252 48.7729 48.252C49.7194 48.252 50.3763 48.378 51.0366 48.5604V48.3382C51.0366 47.0416 50.2349 46.3652 48.847 46.3652C47.9746 46.3652 47.2874 46.574 46.6003 46.8857L46.2701 45.997C47.0853 45.6322 47.8701 45.3769 48.9615 45.3769C50.0058 45.3769 50.8243 45.6588 51.3532 46.1795C51.8652 46.6868 52.1245 47.3897 52.1245 48.3183V52.7684H51.0366V51.684C50.5211 52.3307 49.6791 52.9243 48.3755 52.9243C46.9876 52.9276 45.6133 52.155 45.6133 50.6329Z" fill="#394049"/>
<path d="M54.6709 45.4897H55.7724V46.7597C56.2574 45.9704 57.0322 45.3338 58.3055 45.3338C60.0942 45.3338 61.1384 46.5177 61.1384 48.2519V52.7717H60.0369V48.5172C60.0369 47.1675 59.2925 46.3219 57.9923 46.3219C56.7189 46.3219 55.7758 47.2371 55.7758 48.6001V52.7717H54.6743V45.4897H54.6709Z" fill="#394049"/>
<path d="M63.2441 49.1373C63.2441 47.0814 64.8744 45.3338 67.0371 45.3338C68.4383 45.3338 69.3141 45.9141 69.998 46.6336L69.2973 47.3664C68.7112 46.7596 68.0241 46.2954 67.0235 46.2954C65.5212 46.2954 64.3759 47.549 64.3759 49.1406C64.3759 50.7158 65.5481 51.9691 67.0909 51.9691C68.0342 51.9691 68.7381 51.4917 69.3243 50.8715L70.0553 51.5348C69.3109 52.3506 68.4249 52.9442 67.0371 52.9442C64.8744 52.9442 63.2441 51.2065 63.2441 49.1373Z" fill="#394049"/>
<path d="M77.2931 48.7029C77.1652 47.3798 76.3903 46.2523 74.9317 46.2523C73.6585 46.2523 72.685 47.2936 72.5266 48.7029H77.2931ZM75.1338 51.999C76.1512 51.999 76.8653 51.5913 77.4648 50.9711L78.1521 51.5812C77.4076 52.397 76.5083 52.9475 75.1036 52.9475C73.0724 52.9475 71.415 51.4088 71.415 49.1439C71.415 47.0283 72.9175 45.3404 74.9621 45.3404C77.1482 45.3404 78.4081 47.0582 78.4081 49.2003C78.4081 49.2998 78.4081 49.4092 78.3947 49.5816H72.5266C72.685 51.1104 73.8302 51.999 75.1338 51.999Z" fill="#394049"/>
<path d="M91.1885 49.1373C91.1885 47.5721 90.0028 46.2921 88.4431 46.2921C86.8431 46.2921 85.7382 47.5754 85.7382 49.1373C85.7382 50.7025 86.9104 51.9658 88.4701 51.9658C90.0736 51.9691 91.1885 50.7025 91.1885 49.1373ZM84.6064 49.1373C84.6064 47.0814 86.2369 45.3338 88.4701 45.3338C90.6866 45.3338 92.3169 47.0514 92.3169 49.1373C92.3169 51.1933 90.6732 52.9407 88.4398 52.9407C86.2233 52.9442 84.6064 51.2231 84.6064 49.1373Z" fill="#394049"/>
<path d="M94.9381 46.448H93.9209V45.5063H94.9381V44.8729C94.9381 44.0405 95.1672 43.4072 95.5816 42.9993C95.9521 42.6346 96.4945 42.4356 97.1715 42.4356C97.6835 42.4356 98.0305 42.492 98.3841 42.6213V43.5631C97.9867 43.4504 97.6835 43.3808 97.313 43.3808C96.454 43.3808 96.0262 43.8848 96.0262 44.9293V45.5229H98.3707V46.4513H96.0396V52.7751H94.9381V46.448Z" fill="#394049"/>
<path d="M104.684 42.9132H105.815V48.8026L111.569 42.9132H113.024L108.733 47.2207L113.213 52.7719H111.795L107.948 48L105.815 50.1256V52.7719H104.684V42.9132Z" fill="#394049"/>
<path d="M120.694 49.1373C120.694 47.5721 119.508 46.2921 117.949 46.2921C116.349 46.2921 115.244 47.5754 115.244 49.1373C115.244 50.7025 116.419 51.9658 117.976 51.9658C119.579 51.9691 120.694 50.7025 120.694 49.1373ZM114.115 49.1373C114.115 47.0814 115.746 45.3338 117.979 45.3338C120.195 45.3338 121.826 47.0514 121.826 49.1373C121.826 51.1933 120.182 52.9407 117.949 52.9407C115.732 52.9442 114.115 51.2231 114.115 49.1373Z" fill="#394049"/>
<path d="M124.032 45.4897H125.134V47.3897C125.676 46.1794 126.751 45.304 128.152 45.3637V46.5309H128.068C126.451 46.5309 125.134 47.6717 125.134 49.8702V52.7717H124.032V45.4897Z" fill="#394049"/>
<path d="M130.041 45.4897H131.143V46.7597C131.629 45.9704 132.403 45.3338 133.677 45.3338C135.465 45.3338 136.509 46.5177 136.509 48.2519V52.7717H135.408V48.5172C135.408 47.1675 134.663 46.3219 133.362 46.3219C132.089 46.3219 131.146 47.2371 131.146 48.6001V52.7717H130.045V45.4897H130.041Z" fill="#394049"/>
<path d="M143.765 42.9132H150.959V43.9412H144.897V47.4628H150.319V48.4775H144.897V52.7719H143.765V42.9132Z" fill="#394049"/>
<path d="M158.386 48.7029C158.258 47.3798 157.484 46.2523 156.025 46.2523C154.752 46.2523 153.778 47.2936 153.621 48.7029H158.386ZM156.227 51.999C157.245 51.999 157.959 51.5913 158.558 50.9711L159.246 51.5812C158.501 52.397 157.601 52.9475 156.197 52.9475C154.166 52.9475 152.509 51.4088 152.509 49.1439C152.509 47.0283 154.011 45.3404 156.055 45.3404C158.241 45.3404 159.502 47.0582 159.502 49.2003C159.502 49.2998 159.502 49.4092 159.488 49.5816H153.621C153.782 51.1104 154.924 51.999 156.227 51.999Z" fill="#394049"/>
<path d="M161.651 45.4897H162.753V47.3897C163.296 46.1794 164.37 45.304 165.772 45.3637V46.5309H165.686C164.07 46.5309 162.753 47.6717 162.753 49.8702V52.7717H161.651V45.4897Z" fill="#394049"/>
<path d="M167.66 45.4897H168.762V47.3897C169.305 46.1794 170.379 45.304 171.78 45.3637V46.5309H171.696C170.079 46.5309 168.762 47.6717 168.762 49.8702V52.7717H167.66V45.4897Z" fill="#394049"/>
<path d="M173.243 54.7017L173.612 53.8428C173.969 54.0252 174.3 54.1082 174.775 54.1082C175.431 54.1082 175.846 53.7699 176.291 52.7419L172.926 45.4897H174.141L176.833 51.5615L179.208 45.4897H180.383L177.278 53.0106C176.65 54.516 175.933 55.0666 174.819 55.0666C174.202 55.0666 173.744 54.9404 173.243 54.7017Z" fill="#394049"/>
<path d="M31.3414 26.2996C34.4607 26.2996 36.7445 24.0944 36.7445 20.7187C36.7445 17.4324 34.4135 15.1808 31.3414 15.1808C28.3535 15.1808 25.9787 17.3429 25.9787 20.7187C25.9754 23.9618 28.2626 26.2996 31.3414 26.2996ZM31.3414 10.5085C37.8897 10.5085 42.1071 14.8791 42.1071 20.7154C42.1071 26.5549 37.8897 30.9222 31.3414 30.9222C24.7929 30.9222 20.5723 26.5549 20.5723 20.7154C20.5723 14.8791 24.7929 10.5085 31.3414 10.5085Z" fill="#394049"/>
<path d="M54.2459 18.6065C52.2249 18.0461 50.48 17.5653 50.48 16.3483C50.48 15.5955 51.2918 14.7997 52.8009 14.7997C54.9297 14.7997 56.9745 15.7845 58.076 16.6301L58.2074 16.7296L60.2218 12.9459L60.1476 12.8796C59.3257 12.1269 56.9374 10.376 52.5416 10.376C48.1221 10.376 45.1511 12.81 45.1511 16.4378C45.1511 20.7951 49.0417 21.8894 52.1677 22.7715C54.1349 23.322 55.8325 23.7994 55.8325 24.9634C55.8325 26.2002 54.5627 26.6447 53.3769 26.6447C51.4266 26.6447 48.4859 25.4873 47.3304 24.2637L47.2159 24.1443L44.5986 27.5963L44.6558 27.6725C45.5754 29.0587 49.301 31.065 53.0334 31.065C57.9716 31.065 61.1649 28.5646 61.1649 24.7013C61.1548 20.5165 57.3249 19.4587 54.2459 18.6065Z" fill="#394049"/>
<path d="M97.8418 20.2843L104.875 30.4514H98.7209L94.1061 23.4413L89.316 30.4514H83.4717L90.5052 20.5431L83.9096 10.9829H90.1077L94.2846 17.4292L98.5896 10.9829H104.434L97.8418 20.2843Z" fill="#394049"/>
<path d="M112.977 17.3031V25.1721C114.337 26.0377 115.479 26.2996 117.15 26.2996C120.667 26.2996 122.685 23.7893 122.685 20.5463C122.685 17.4325 120.839 15.1808 117.497 15.1808C115.786 15.1808 114.206 15.9568 112.977 17.3031ZM107.924 10.9861H112.98V12.8464C114.209 11.5465 116.537 10.5085 119.087 10.5085C124.534 10.5085 128.051 14.6636 128.051 20.417C128.051 26.3428 123.921 30.9255 117.591 30.9255C115.837 30.9255 114.122 30.6237 112.98 29.9738V37.7732H107.924V10.9861Z" fill="#394049"/>
<path d="M135.71 18.9015H145.422C145.466 16.5205 143.795 14.6636 140.894 14.6636C137.866 14.6636 136.238 16.3482 135.71 18.9015ZM148.85 28.5015C146.874 30.1462 144.06 30.9222 141.292 30.9222C134.922 30.9222 130.657 26.86 130.657 20.7154C130.657 15.0482 134.612 10.5085 141.114 10.5085C146.21 10.5085 150.474 14.0998 150.474 19.5515C150.474 20.7584 150.39 21.498 150.168 22.2309H135.886C136.326 25.1721 138.701 26.7739 141.821 26.7739C144.236 26.7739 146.254 25.9083 147.398 24.9997L148.85 28.5015Z" fill="#394049"/>
<path d="M154.563 10.9861H159.616V13.5528C160.539 12.2993 161.76 10.9861 164.131 10.9861C165.757 10.9861 166.546 11.0027 166.546 11.0027V15.5689C166.546 15.5689 164.595 15.3202 162.952 15.7746C161.307 16.2321 160.193 17.5918 159.62 18.7158V30.4481H154.567V10.9861H154.563Z" fill="#394049"/>
<path d="M169.001 5.18631H174.057V10.9861H180.427V15.6584H174.057V22.7515C174.057 24.8738 174.758 26.2532 176.428 26.2532C177.794 26.2532 178.759 25.6497 179.46 25.1291L181 28.979C179.814 29.934 177.706 30.8825 175.156 30.8825C170.669 30.8825 169.001 28.0274 169.001 23.0533V5.18631Z" fill="#394049"/>
<path d="M79.4797 17.8271H73.2816C68.2929 17.8271 64.2305 13.8279 64.2305 8.91689C64.2305 3.99918 68.2929 0 73.2816 0H80.8777V5.16643H73.2816C71.1831 5.16643 69.4752 6.84767 69.4752 8.91689C69.4752 10.9828 71.1831 12.664 73.2816 12.664H79.4797V17.8271Z" fill="#394049"/>
<path d="M80.8777 30.4879H73.285C68.2929 30.4879 64.2305 26.4886 64.2305 21.5776C64.2305 16.6632 68.2929 12.664 73.285 12.664H80.5846V17.8271H73.285C71.1831 17.8271 69.4752 19.5084 69.4752 21.5776C69.4752 23.6435 71.1831 25.3247 73.285 25.3247H80.8777V30.4879Z" fill="#394049"/>
<path d="M8.03388 18.769V13.6058C10.3716 13.6058 12.2748 11.7323 12.2748 9.43097C12.2748 7.12963 10.375 5.25606 8.03388 5.25606H0V0.0896454H8.03388C13.2652 0.0896454 17.523 4.27783 17.523 9.43097C17.523 14.5842 13.2686 18.769 8.03388 18.769Z" fill="#394049"/>
<path d="M17.5235 30.5177H12.2788V22.9471C12.2788 20.6458 10.3755 18.7722 8.03779 18.7722H0.00390625V13.6091H8.03779C13.2691 13.6091 17.527 17.7973 17.527 22.9505V30.5177H17.5235Z" fill="#394049"/>
</g>
<defs>
<clipPath id="clip0">
<rect width="181" height="56" fill="white"/>
</clipPath>
</defs>
</svg>
