<svg width="67" height="77" viewBox="0 0 67 77" fill="none" xmlns="http://www.w3.org/2000/svg">
<path d="M9.39862 62.304C7.89592 63.9349 4.94426 65.2656 3.79307 64.2048C2.64188 63.1441 3.72708 60.0936 5.22978 58.4628C6.73247 56.8319 8.08362 57.2382 9.23481 58.299C10.386 59.3597 10.9013 60.6731 9.39862 62.304Z" fill="#E21A1A"/>
<path d="M57.6326 62.304C59.1353 63.9349 62.087 65.2656 63.2382 64.2048C64.3894 63.1441 63.3042 60.0936 61.8015 58.4628C60.2988 56.8319 58.9476 57.2382 57.7964 58.299C56.6452 59.3597 56.1299 60.6731 57.6326 62.304Z" fill="#E21A1A"/>
<path d="M20.4182 63.6955C20.6338 63.2203 21.1938 63.0099 21.669 63.2255C22.1441 63.4411 22.3546 64.0011 22.139 64.4762L21.5534 65.7668C21.3378 66.242 20.7779 66.4524 20.3027 66.2368C19.8275 66.0212 19.6171 65.4612 19.8327 64.9861L20.4182 63.6955Z" fill="#ADBDCD"/>
<path d="M21.872 69.413C20.9557 71.4325 18.5694 73.6207 17.1439 72.974C15.7184 72.3272 15.7935 69.0903 16.7098 67.0709C17.626 65.0514 19.0365 65.0141 20.462 65.6608C21.8875 66.3076 22.7883 67.3936 21.872 69.413Z" fill="#2D80CC"/>
<path d="M46.6111 63.6955C46.3955 63.2203 45.8355 63.0099 45.3603 63.2255C44.8852 63.4411 44.6747 64.0011 44.8903 64.4762L45.4759 65.7668C45.6915 66.242 46.2514 66.4524 46.7266 66.2368C47.2018 66.0212 47.4122 65.4612 47.1966 64.9861L46.6111 63.6955Z" fill="#ADBDCD"/>
<path d="M45.1593 69.413C46.0755 71.4325 48.4619 73.6207 49.8874 72.974C51.3129 72.3272 51.2377 69.0903 50.3215 67.0709C49.4052 65.0514 47.9948 65.0141 46.5693 65.6608C45.1438 66.3076 44.243 67.3936 45.1593 69.413Z" fill="#2D80CC"/>
<path d="M34.1608 66.3455C34.1593 65.8237 33.7352 65.4019 33.2134 65.4033C32.6916 65.4047 32.2698 65.8289 32.2712 66.3506L32.275 67.7678C32.2764 68.2896 32.7006 68.7115 33.2224 68.71C33.7441 68.7086 34.166 68.2845 34.1646 67.7627L34.1608 66.3455Z" fill="#ADBDCD"/>
<path d="M30.4874 70.9616C30.4934 73.1792 31.7704 76.1545 33.3358 76.1502C34.9012 76.146 36.1621 73.1639 36.1561 70.9463C36.1501 68.7287 34.8795 68.1154 33.3141 68.1196C31.7487 68.1238 30.4814 68.744 30.4874 70.9616Z" fill="#E21A1A"/>
<path d="M0.75 33.5939C0.749999 42.2627 4.19369 50.5765 10.3235 56.7064C16.4533 62.8362 24.7671 66.2799 33.436 66.2799C42.1048 66.2799 50.4186 62.8362 56.5485 56.7064C62.6783 50.5766 66.122 42.2627 66.122 33.5939H64.9566C64.9566 41.9537 61.6357 49.9711 55.7244 55.8823C49.8132 61.7936 41.7958 65.1145 33.436 65.1145C25.0762 65.1145 17.0588 61.7936 11.1475 55.8823C5.23626 49.9711 1.91535 41.9537 1.91535 33.5939H0.75Z" fill="#499947"/>
</svg>
