<svg width="222" height="305" viewBox="0 0 222 305" fill="none" xmlns="http://www.w3.org/2000/svg">
<path d="M97.1599 63.3832C85.1098 61.0712 46.1303 45.9645 65.7299 31.0163C86.9493 14.8327 97.9489 46.0438 97.163 61.6493M114.452 61.6493C107.903 50.475 103.45 11.9428 131.743 4.42918C178.164 -7.89835 130.17 63.3831 112.88 70.3189" stroke="#F44F5E" stroke-width="5"/>
<path d="M0 66.0465L222 48.8142L201.532 305L25.1915 286.619L0 66.0465Z" fill="#276625"/>
<path d="M11.5508 161.672L213.019 158.207L209.883 196.322L15.4704 197.477L11.5508 161.672Z" fill="#F44F5E"/>
<path d="M129.107 298.455L134.738 55.3591L80.8423 59.4011L96.9307 294.991L129.107 298.455Z" fill="#F44F5E"/>
</svg>
