<svg width="239" height="315" viewBox="0 0 239 315" fill="none" xmlns="http://www.w3.org/2000/svg">
<path d="M10.1766 86.1561C9.5338 80.5277 13.6902 75.4897 19.3381 75.0513L219.325 59.5278C225.454 59.0521 230.557 64.1665 230.067 70.2942L211.348 304.596C210.9 310.195 205.93 314.328 200.343 313.745L42.1789 297.259C37.5131 296.773 33.8125 293.108 33.2802 288.447L10.1766 86.1561Z" fill="#276625"/>
<path d="M106.16 65.6074C94.1098 63.2955 55.1303 48.1887 74.7299 33.2405C95.9493 17.057 106.949 48.2681 106.163 63.8735M123.452 63.8735C116.903 52.6993 112.45 14.1671 140.743 6.65345C187.164 -5.67408 139.17 65.6074 121.88 72.5432" stroke="#ED3C40" stroke-width="10"/>
<path d="M20 171.432L222.219 168.089L219.156 206.276L24.0622 207.284L20 171.432Z" fill="#ED3C40"/>
<path d="M138.141 307.229L143.738 65.1664L89.8423 69.2084L105.953 303.901L138.141 307.229Z" fill="#ED3C40"/>
<path d="M8.01562 67.9521L231.5 51.7448L229.438 77.4323L11 93.8073L8.01562 67.9521Z" fill="#255E24" fill-opacity="0.6"/>
<path d="M0.589295 69.1815C0.382491 66.4278 2.44713 64.0279 5.2008 63.8211L231.474 46.8278C234.227 46.621 236.627 48.6856 236.834 51.4393L238.032 67.3943C238.239 70.148 236.174 72.5479 233.421 72.7547L7.14795 89.7481C4.39428 89.9549 1.99434 87.8903 1.78754 85.1366L0.589295 69.1815Z" fill="#276625"/>
</svg>
