<svg width="232" height="58" viewBox="0 0 232 58" fill="none" xmlns="http://www.w3.org/2000/svg">
<rect width="3.59771" height="9.89369" transform="matrix(-1 0 0 1 18.0918 44.0438)" fill="#BC7756"/>
<rect width="1.60943" height="9.89369" transform="matrix(-1 0 0 1 16.1035 44.0438)" fill="#975637"/>
<g clip-path="url(#clip0)">
<path d="M58.2572 50.1014L55.9835 45.0743L53.6929 50.1014H58.2572ZM55.4681 43.7809H56.5258L61.0901 53.7092H59.8741L58.6985 51.1028H53.2482L52.0625 53.7092H50.9004L55.4681 43.7809Z" fill="#394049"/>
<path d="M63.0967 46.4272H64.1982V47.6972C64.6833 46.9079 65.4579 46.2713 66.7313 46.2713C68.5199 46.2713 69.5642 47.4552 69.5642 49.1894V53.7092H68.4627V49.4547C68.4627 48.105 67.7182 47.2594 66.418 47.2594C65.1447 47.2594 64.2015 48.1746 64.2015 49.5376V53.7092H63.1V46.4272H63.0967Z" fill="#394049"/>
<path d="M81.5086 51.0365V50.36C80.9662 50.2041 80.2488 50.0484 79.3494 50.0484C77.9784 50.0484 77.1902 50.642 77.1902 51.5406C77.1902 52.4558 78.0491 52.9896 79.0529 52.9896C80.407 52.9896 81.5086 52.1872 81.5086 51.0365ZM76.0752 51.5704C76.0752 50.0052 77.3653 49.1895 79.2348 49.1895C80.1814 49.1895 80.8382 49.3155 81.4985 49.4979V49.2757C81.4985 47.9791 80.6968 47.3027 79.3089 47.3027C78.4365 47.3027 77.7493 47.5115 77.0622 47.8232L76.7321 46.9345C77.5472 46.5697 78.3321 46.3144 79.4234 46.3144C80.4677 46.3144 81.2863 46.5963 81.8151 47.117C82.3271 47.6243 82.5865 48.3272 82.5865 49.2558V53.7059H81.4985V52.6215C80.9831 53.2682 80.141 53.8618 78.8374 53.8618C77.4495 53.8651 76.0752 53.0925 76.0752 51.5704Z" fill="#394049"/>
<path d="M86.333 43.4295H85.2314V53.7127H86.333V43.4295Z" fill="#394049"/>
<path d="M90.3144 43.4295H89.2129V53.7127H90.3144V43.4295Z" fill="#394049"/>
<path d="M93.1879 53.7127H94.2894V46.4306H93.1879V53.7127ZM93.1172 44.8323H94.3769V43.6385H93.1172V44.8323Z" fill="#394049"/>
<path d="M101.946 51.0365V50.36C101.404 50.2041 100.687 50.0484 99.7873 50.0484C98.4163 50.0484 97.6281 50.642 97.6281 51.5406C97.6281 52.4558 98.4871 52.9896 99.4908 52.9896C100.845 52.9896 101.946 52.1872 101.946 51.0365ZM96.5098 51.5704C96.5098 50.0052 97.7999 49.1895 99.6694 49.1895C100.616 49.1895 101.273 49.3155 101.933 49.4979V49.2757C101.933 47.9791 101.131 47.3027 99.7435 47.3027C98.871 47.3027 98.1839 47.5115 97.4967 47.8232L97.1665 46.9345C97.9818 46.5697 98.7666 46.3144 99.858 46.3144C100.902 46.3144 101.721 46.5963 102.25 47.117C102.762 47.6243 103.021 48.3272 103.021 49.2558V53.7059H101.933V52.6215C101.418 53.2682 100.576 53.8618 99.272 53.8618C97.8841 53.8651 96.5098 53.0925 96.5098 51.5704Z" fill="#394049"/>
<path d="M105.567 46.4272H106.669V47.6972C107.154 46.9079 107.929 46.2713 109.202 46.2713C110.991 46.2713 112.035 47.4552 112.035 49.1894V53.7092H110.933V49.4547C110.933 48.105 110.189 47.2594 108.889 47.2594C107.615 47.2594 106.672 48.1746 106.672 49.5376V53.7092H105.571V46.4272H105.567Z" fill="#394049"/>
<path d="M114.141 50.0748C114.141 48.0189 115.771 46.2713 117.934 46.2713C119.335 46.2713 120.211 46.8516 120.895 47.5711L120.194 48.3039C119.608 47.6971 118.921 47.2329 117.92 47.2329C116.418 47.2329 115.272 48.4865 115.272 50.0781C115.272 51.6533 116.445 52.9066 117.987 52.9066C118.931 52.9066 119.635 52.4292 120.221 51.809L120.952 52.4723C120.207 53.2881 119.321 53.8817 117.934 53.8817C115.771 53.8817 114.141 52.144 114.141 50.0748Z" fill="#394049"/>
<path d="M128.19 49.6404C128.062 48.3173 127.287 47.1898 125.828 47.1898C124.555 47.1898 123.581 48.2311 123.423 49.6404H128.19ZM126.03 52.9365C127.048 52.9365 127.762 52.5288 128.361 51.9086L129.049 52.5187C128.304 53.3345 127.405 53.885 126 53.885C123.969 53.885 122.312 52.3463 122.312 50.0814C122.312 47.9658 123.814 46.2779 125.859 46.2779C128.045 46.2779 129.305 47.9957 129.305 50.1378C129.305 50.2373 129.305 50.3467 129.291 50.5191H123.423C123.581 52.0479 124.727 52.9365 126.03 52.9365Z" fill="#394049"/>
<path d="M142.085 50.0748C142.085 48.5096 140.899 47.2296 139.34 47.2296C137.74 47.2296 136.635 48.5129 136.635 50.0748C136.635 51.64 137.807 52.9033 139.367 52.9033C140.97 52.9066 142.085 51.64 142.085 50.0748ZM135.503 50.0748C135.503 48.0189 137.133 46.2713 139.367 46.2713C141.583 46.2713 143.213 47.9889 143.213 50.0748C143.213 52.1308 141.57 53.8782 139.336 53.8782C137.12 53.8817 135.503 52.1606 135.503 50.0748Z" fill="#394049"/>
<path d="M145.835 47.3855H144.817V46.4438H145.835V45.8104C145.835 44.978 146.064 44.3447 146.478 43.9368C146.849 43.5721 147.391 43.3731 148.068 43.3731C148.58 43.3731 148.927 43.4295 149.281 43.5588V44.5006C148.883 44.3879 148.58 44.3183 148.209 44.3183C147.35 44.3183 146.923 44.8223 146.923 45.8668V46.4604H149.267V47.3888H146.936V53.7126H145.835V47.3855Z" fill="#394049"/>
<path d="M155.58 43.8507H156.712V49.7401L162.465 43.8507H163.921L159.629 48.1582L164.109 53.7094H162.691L158.844 48.9375L156.712 51.0631V53.7094H155.58V43.8507Z" fill="#394049"/>
<path d="M171.59 50.0748C171.59 48.5096 170.405 47.2296 168.845 47.2296C167.245 47.2296 166.14 48.5129 166.14 50.0748C166.14 51.64 167.316 52.9033 168.872 52.9033C170.475 52.9066 171.59 51.64 171.59 50.0748ZM165.012 50.0748C165.012 48.0189 166.642 46.2713 168.875 46.2713C171.092 46.2713 172.722 47.9889 172.722 50.0748C172.722 52.1308 171.078 53.8782 168.845 53.8782C166.629 53.8817 165.012 52.1606 165.012 50.0748Z" fill="#394049"/>
<path d="M174.929 46.4272H176.03V48.3272C176.573 47.1169 177.647 46.2415 179.048 46.3012V47.4684H178.964C177.347 47.4684 176.03 48.6092 176.03 50.8077V53.7092H174.929V46.4272Z" fill="#394049"/>
<path d="M180.938 46.4272H182.039V47.6972C182.525 46.9079 183.3 46.2713 184.573 46.2713C186.361 46.2713 187.406 47.4552 187.406 49.1894V53.7092H186.304V49.4547C186.304 48.105 185.559 47.2594 184.259 47.2594C182.985 47.2594 182.043 48.1746 182.043 49.5376V53.7092H180.941V46.4272H180.938Z" fill="#394049"/>
<path d="M194.661 43.8507H201.856V44.8787H195.794V48.4003H201.216V49.415H195.794V53.7094H194.661V43.8507Z" fill="#394049"/>
<path d="M209.283 49.6404C209.155 48.3173 208.38 47.1898 206.922 47.1898C205.648 47.1898 204.675 48.2311 204.517 49.6404H209.283ZM207.124 52.9365C208.141 52.9365 208.856 52.5288 209.455 51.9086L210.142 52.5187C209.398 53.3345 208.498 53.885 207.094 53.885C205.063 53.885 203.405 52.3463 203.405 50.0814C203.405 47.9658 204.908 46.2779 206.952 46.2779C209.138 46.2779 210.398 47.9957 210.398 50.1378C210.398 50.2373 210.398 50.3467 210.384 50.5191H204.517C204.679 52.0479 205.82 52.9365 207.124 52.9365Z" fill="#394049"/>
<path d="M212.548 46.4272H213.649V48.3272C214.192 47.1169 215.267 46.2415 216.668 46.3012V47.4684H216.583C214.967 47.4684 213.649 48.6092 213.649 50.8077V53.7092H212.548V46.4272Z" fill="#394049"/>
<path d="M218.557 46.4272H219.658V48.3272C220.201 47.1169 221.276 46.2415 222.677 46.3012V47.4684H222.593C220.976 47.4684 219.658 48.6092 219.658 50.8077V53.7092H218.557V46.4272Z" fill="#394049"/>
<path d="M224.139 55.6392L224.509 54.7803C224.866 54.9627 225.197 55.0457 225.671 55.0457C226.328 55.0457 226.743 54.7074 227.188 53.6794L223.822 46.4272H225.038L227.729 52.499L230.104 46.4272H231.279L228.174 53.9481C227.547 55.4535 226.829 56.0041 225.715 56.0041C225.098 56.0041 224.641 55.8779 224.139 55.6392Z" fill="#394049"/>
<path d="M82.2379 27.2371C85.3571 27.2371 87.641 25.0319 87.641 21.6562C87.641 18.3699 85.31 16.1183 82.2379 16.1183C79.2499 16.1183 76.8752 18.2804 76.8752 21.6562C76.8719 24.8993 79.1591 27.2371 82.2379 27.2371ZM82.2379 11.446C88.7862 11.446 93.0036 15.8166 93.0036 21.6529C93.0036 27.4924 88.7862 31.8597 82.2379 31.8597C75.6894 31.8597 71.4688 27.4924 71.4688 21.6529C71.4688 15.8166 75.6894 11.446 82.2379 11.446Z" fill="#394049"/>
<path d="M105.142 19.544C103.121 18.9836 101.376 18.5028 101.376 17.2858C101.376 16.533 102.188 15.7372 103.697 15.7372C105.826 15.7372 107.871 16.722 108.973 17.5676L109.104 17.6671L111.118 13.8834L111.044 13.8171C110.222 13.0644 107.834 11.3135 103.438 11.3135C99.0185 11.3135 96.0476 13.7475 96.0476 17.3753C96.0476 21.7326 99.9382 22.8269 103.064 23.709C105.031 24.2595 106.729 24.7369 106.729 25.9009C106.729 27.1377 105.459 27.5822 104.273 27.5822C102.323 27.5822 99.3824 26.4248 98.2269 25.2012L98.1124 25.0818L95.4951 28.5338L95.5523 28.61C96.4719 29.9962 100.197 32.0025 103.93 32.0025C108.868 32.0025 112.061 29.5021 112.061 25.6389C112.051 21.454 108.221 20.3962 105.142 19.544Z" fill="#394049"/>
<path d="M148.738 21.2219L155.772 31.3889H149.617L145.003 24.3789L140.213 31.3889H134.368L141.402 21.4806L134.806 11.9204H141.004L145.181 18.3668L149.486 11.9204H155.33L148.738 21.2219Z" fill="#394049"/>
<path d="M163.873 18.2406V26.1096C165.234 26.9752 166.376 27.2371 168.047 27.2371C171.563 27.2371 173.581 24.7268 173.581 21.4838C173.581 18.37 171.735 16.1183 168.394 16.1183C166.682 16.1183 165.103 16.8943 163.873 18.2406ZM158.82 11.9236H163.876V13.7839C165.106 12.484 167.434 11.446 169.984 11.446C175.43 11.446 178.947 15.6011 178.947 21.3545C178.947 27.2803 174.817 31.863 168.488 31.863C166.733 31.863 165.018 31.5612 163.876 30.9113V38.7107H158.82V11.9236Z" fill="#394049"/>
<path d="M186.606 19.839H196.318C196.362 17.458 194.692 15.6011 191.791 15.6011C188.763 15.6011 187.135 17.2857 186.606 19.839ZM199.747 29.439C197.77 31.0837 194.957 31.8597 192.189 31.8597C185.819 31.8597 181.554 27.7975 181.554 21.6529C181.554 15.9857 185.509 11.446 192.01 11.446C197.107 11.446 201.371 15.0373 201.371 20.489C201.371 21.6959 201.287 22.4355 201.064 23.1684H186.782C187.223 26.1096 189.598 27.7114 192.718 27.7114C195.133 27.7114 197.151 26.8458 198.295 25.9372L199.747 29.439Z" fill="#394049"/>
<path d="M205.46 11.9236H210.512V14.4902C211.436 13.2368 212.656 11.9236 215.027 11.9236C216.654 11.9236 217.442 11.9402 217.442 11.9402V16.5064C217.442 16.5064 215.491 16.2577 213.848 16.712C212.204 17.1696 211.089 18.5292 210.516 19.6533V31.3856H205.464V11.9236H205.46Z" fill="#394049"/>
<path d="M219.897 6.12381H224.954V11.9236H231.324V16.5959H224.954V23.689C224.954 25.8113 225.655 27.1907 227.325 27.1907C228.69 27.1907 229.656 26.5872 230.357 26.0666L231.896 29.9165C230.711 30.8715 228.602 31.82 226.053 31.82C221.565 31.82 219.897 28.9649 219.897 23.9908V6.12381Z" fill="#394049"/>
<path d="M130.376 18.7646H124.178C119.189 18.7646 115.127 14.7654 115.127 9.85439C115.127 4.93668 119.189 0.9375 124.178 0.9375H131.774V6.10393H124.178C122.08 6.10393 120.372 7.78517 120.372 9.85439C120.372 11.9203 122.08 13.6015 124.178 13.6015H130.376V18.7646Z" fill="#394049"/>
<path d="M131.774 31.4254H124.181C119.189 31.4254 115.127 27.4261 115.127 22.5151C115.127 17.6007 119.189 13.6015 124.181 13.6015H131.481V18.7646H124.181C122.08 18.7646 120.372 20.4459 120.372 22.5151C120.372 24.5809 122.08 26.2622 124.181 26.2622H131.774V31.4254Z" fill="#394049"/>
<path d="M58.9304 19.7065V14.5433C61.2681 14.5433 63.1713 12.6698 63.1713 10.3685C63.1713 8.06711 61.2715 6.19354 58.9304 6.19354H50.8965V1.02713H58.9304C64.1617 1.02713 68.4195 5.21531 68.4195 10.3685C68.4195 15.5217 64.1651 19.7065 58.9304 19.7065Z" fill="#394049"/>
<path d="M68.4199 31.4552H63.1752V23.8846C63.1752 21.5833 61.272 19.7097 58.9343 19.7097H50.9004V14.5466H58.9343C64.1655 14.5466 68.4234 18.7348 68.4234 23.8879V31.4552H68.4199Z" fill="#394049"/>
</g>
<path d="M18.0918 6.26788L7.29868 23.357H18.0918V6.26788Z" fill="#208D2B"/>
<path d="M18.0801 6.28906L7.29883 23.3555H11.1816C9.63164 22.1555 15.1426 11.5182 18.0801 6.28906Z" fill="#16771F"/>
<path d="M18.0918 12.5638L3.70097 35.0495H18.0918V12.5638Z" fill="#208D2B"/>
<path d="M18.0918 20.6587L0.10326 46.7421H18.0918V20.6587Z" fill="#208D2B"/>
<mask id="mask0" mask-type="alpha" maskUnits="userSpaceOnUse" x="13" y="0" width="6" height="10">
<rect x="13.3135" width="4.7782" height="9.69695" fill="#C4C4C4"/>
</mask>
<g mask="url(#mask0)">
<path d="M16.7938 3.5977L17.815 1.12203C17.9171 0.874559 18.2676 0.874559 18.3697 1.12203L19.3909 3.5977H22.0589C22.3548 3.5977 22.472 3.98072 22.2268 4.14632L20.1858 5.52469L21.423 8.52401C21.5363 8.79875 21.2241 9.05335 20.9778 8.88702L18.0924 6.93843L15.2069 8.88702C14.9606 9.05335 14.6484 8.79875 14.7617 8.52401L15.9989 5.52469L13.9579 4.14632C13.7127 3.98072 13.8299 3.5977 14.1258 3.5977H16.7938Z" fill="#F2A93A"/>
</g>
<path d="M11.1895 23.3516L3.71289 35.0495H8.1582C6.6082 33.8495 8.25195 28.5807 11.1895 23.3516Z" fill="#16771F"/>
<path d="M8.18164 35.0495L0.103516 46.7474H6.07227C4.52227 45.5474 5.24414 40.2787 8.18164 35.0495Z" fill="#16771F"/>
<path d="M20.8965 13.225V1.288H21.9085L28.0265 8.372C28.9005 9.384 29.6212 10.0893 30.1885 10.488C30.7558 10.8867 31.3845 11.086 32.0745 11.086C33.0098 11.086 33.7535 10.7257 34.3055 10.005C34.8575 9.28433 35.1335 8.418 35.1335 7.406L35.1565 7.199C35.1565 5.451 34.4282 3.98667 32.9715 2.806L34.0525 1.633C35.9078 3.12033 36.8355 5.014 36.8355 7.314V7.567C36.8202 9.10033 36.3832 10.3653 35.5245 11.362C34.6812 12.3587 33.6308 12.857 32.3735 12.857C31.3615 12.857 30.4338 12.5503 29.5905 11.937C28.7472 11.339 27.7198 10.3117 26.5085 8.855L22.5755 4.393V13.225H20.8965ZM34.4665 18.4652C36.0458 20.0292 36.8355 21.9229 36.8355 24.1462C36.8355 26.3696 36.0458 28.2709 34.4665 29.8502C32.9025 31.4296 31.0088 32.2192 28.7855 32.2192C26.5622 32.2192 24.6608 31.4296 23.0815 29.8502C21.5175 28.2862 20.7355 26.3849 20.7355 24.1462C20.7355 21.9229 21.5175 20.0292 23.0815 18.4652C24.6608 16.9012 26.5622 16.1192 28.7855 16.1192C31.0088 16.1192 32.9025 16.9012 34.4665 18.4652ZM33.3165 28.5852C34.5278 27.3892 35.1335 25.9172 35.1335 24.1692C35.1335 22.4212 34.5278 20.9416 33.3165 19.7302C32.1052 18.5342 30.5948 17.9362 28.7855 17.9362C26.9762 17.9362 25.4658 18.5342 24.2545 19.7302C23.0432 20.9416 22.4375 22.4212 22.4375 24.1692C22.4375 25.9172 23.0432 27.3892 24.2545 28.5852C25.4658 29.7966 26.9762 30.4022 28.7855 30.4022C30.5948 30.4022 32.1052 29.7966 33.3165 28.5852ZM20.8965 47.0287V35.0917H21.9085L28.0265 42.1757C28.9005 43.1877 29.6212 43.893 30.1885 44.2917C30.7558 44.6904 31.3845 44.8897 32.0745 44.8897C33.0098 44.8897 33.7535 44.5294 34.3055 43.8087C34.8575 43.088 35.1335 42.2217 35.1335 41.2097L35.1565 41.0027C35.1565 39.2547 34.4282 37.7904 32.9715 36.6097L34.0525 35.4367C35.9078 36.924 36.8355 38.8177 36.8355 41.1177V41.3707C36.8202 42.904 36.3832 44.169 35.5245 45.1657C34.6812 46.1624 33.6308 46.6607 32.3735 46.6607C31.3615 46.6607 30.4338 46.354 29.5905 45.7407C28.7472 45.1427 27.7198 44.1154 26.5085 42.6587L22.5755 38.1967V47.0287H20.8965ZM20.8965 54.4079V52.6139H33.3625L30.9245 50.5899L31.8445 49.3939L36.6515 53.3959V54.4079H20.8965Z" fill="#E84545"/>
<circle cx="14.0658" cy="19.4259" r="1.23274" fill="#E84545"/>
<circle cx="9.41438" cy="42.1312" r="1.23274" fill="#E84545"/>
<circle cx="12.0804" cy="30.2225" r="1.23274" fill="#F2A93A"/>
<defs>
<clipPath id="clip0">
<rect width="181" height="56" fill="white" transform="translate(50.8965 0.9375)"/>
</clipPath>
</defs>
</svg>
