<svg width="184" height="95" viewBox="0 0 184 95" fill="none" xmlns="http://www.w3.org/2000/svg">
<g clip-path="url(#clip0)">
<path d="M7.36072 87.5743L5.08699 82.5471L2.7964 87.5743H7.36072ZM4.5716 81.2538H5.62932L10.1936 91.1821H8.97761L7.802 88.5756H2.35176L1.16605 91.1821H0.00390625L4.5716 81.2538Z" fill="#394049"/>
<path d="M12.2002 83.9H13.3017V85.1701C13.7868 84.3807 14.5615 83.7441 15.8348 83.7441C17.6235 83.7441 18.6677 84.928 18.6677 86.6622V91.1821H17.5662V86.9276C17.5662 85.5779 16.8218 84.7323 15.5215 84.7323C14.2482 84.7323 13.3051 85.6475 13.3051 87.0104V91.1821H12.2036V83.9H12.2002Z" fill="#394049"/>
<path d="M30.6121 88.5093V87.8329C30.0697 87.677 29.3523 87.5212 28.4529 87.5212C27.0819 87.5212 26.2937 88.1148 26.2937 89.0135C26.2937 89.9287 27.1526 90.4625 28.1564 90.4625C29.5106 90.4625 30.6121 89.66 30.6121 88.5093ZM25.1787 89.0432C25.1787 87.478 26.4689 86.6624 28.3383 86.6624C29.285 86.6624 29.9417 86.7884 30.602 86.9707V86.7485C30.602 85.452 29.8003 84.7755 28.4124 84.7755C27.54 84.7755 26.8528 84.9844 26.1657 85.2961L25.8356 84.4073C26.6508 84.0426 27.4357 83.7873 28.527 83.7873C29.5712 83.7873 30.3898 84.0692 30.9186 84.5898C31.4306 85.0972 31.6901 85.8001 31.6901 86.7287V91.1788H30.602V90.0944C30.0867 90.7411 29.2445 91.3347 27.9409 91.3347C26.553 91.338 25.1787 90.5653 25.1787 89.0432Z" fill="#394049"/>
<path d="M35.4365 80.9024H34.335V91.1855H35.4365V80.9024Z" fill="#394049"/>
<path d="M39.4179 80.9024H38.3164V91.1855H39.4179V80.9024Z" fill="#394049"/>
<path d="M42.2914 91.1855H43.3929V83.9035H42.2914V91.1855ZM42.2207 82.3052H43.4805V81.1114H42.2207V82.3052Z" fill="#394049"/>
<path d="M51.05 88.5093V87.8329C50.5077 87.677 49.7902 87.5212 48.8908 87.5212C47.5199 87.5212 46.7316 88.1148 46.7316 89.0135C46.7316 89.9287 47.5906 90.4625 48.5944 90.4625C49.9485 90.4625 51.05 89.66 51.05 88.5093ZM45.6133 89.0432C45.6133 87.478 46.9034 86.6624 48.7729 86.6624C49.7194 86.6624 50.3763 86.7884 51.0366 86.9707V86.7485C51.0366 85.452 50.2349 84.7755 48.847 84.7755C47.9746 84.7755 47.2874 84.9844 46.6003 85.2961L46.2701 84.4073C47.0853 84.0426 47.8701 83.7873 48.9615 83.7873C50.0058 83.7873 50.8243 84.0692 51.3532 84.5898C51.8652 85.0972 52.1245 85.8001 52.1245 86.7287V91.1788H51.0366V90.0944C50.5211 90.7411 49.6791 91.3347 48.3755 91.3347C46.9876 91.338 45.6133 90.5653 45.6133 89.0432Z" fill="#394049"/>
<path d="M54.6709 83.9H55.7724V85.1701C56.2574 84.3807 57.0322 83.7441 58.3055 83.7441C60.0942 83.7441 61.1384 84.928 61.1384 86.6622V91.1821H60.0369V86.9276C60.0369 85.5779 59.2925 84.7323 57.9923 84.7323C56.7189 84.7323 55.7758 85.6475 55.7758 87.0104V91.1821H54.6743V83.9H54.6709Z" fill="#394049"/>
<path d="M63.2441 87.5477C63.2441 85.4917 64.8744 83.7441 67.0371 83.7441C68.4383 83.7441 69.3141 84.3245 69.998 85.0439L69.2973 85.7768C68.7112 85.1699 68.0241 84.7058 67.0235 84.7058C65.5212 84.7058 64.3759 85.9593 64.3759 87.551C64.3759 89.1261 65.5481 90.3795 67.0909 90.3795C68.0342 90.3795 68.7381 89.9021 69.3243 89.2819L70.0553 89.9451C69.3109 90.7609 68.4249 91.3545 67.0371 91.3545C64.8744 91.3545 63.2441 89.6169 63.2441 87.5477Z" fill="#394049"/>
<path d="M77.2931 87.1133C77.1652 85.7902 76.3903 84.6626 74.9317 84.6626C73.6585 84.6626 72.685 85.704 72.5266 87.1133H77.2931ZM75.1338 90.4094C76.1512 90.4094 76.8653 90.0016 77.4648 89.3814L78.1521 89.9916C77.4076 90.8074 76.5083 91.3578 75.1036 91.3578C73.0724 91.3578 71.415 89.8191 71.415 87.5543C71.415 85.4386 72.9175 83.7507 74.9621 83.7507C77.1482 83.7507 78.4081 85.4685 78.4081 87.6107C78.4081 87.7102 78.4081 87.8195 78.3947 87.992H72.5266C72.685 89.5208 73.8302 90.4094 75.1338 90.4094Z" fill="#394049"/>
<path d="M91.1885 87.5477C91.1885 85.9825 90.0028 84.7025 88.4431 84.7025C86.8431 84.7025 85.7382 85.9858 85.7382 87.5477C85.7382 89.1129 86.9104 90.3762 88.4701 90.3762C90.0736 90.3795 91.1885 89.1129 91.1885 87.5477ZM84.6064 87.5477C84.6064 85.4917 86.2369 83.7441 88.4701 83.7441C90.6866 83.7441 92.3169 85.4618 92.3169 87.5477C92.3169 89.6036 90.6732 91.3511 88.4398 91.3511C86.2233 91.3545 84.6064 89.6334 84.6064 87.5477Z" fill="#394049"/>
<path d="M94.9381 84.8584H93.9209V83.9167H94.9381V83.2833C94.9381 82.4509 95.1672 81.8176 95.5816 81.4097C95.9521 81.0449 96.4945 80.846 97.1715 80.846C97.6835 80.846 98.0305 80.9024 98.3841 81.0317V81.9735C97.9867 81.8607 97.6835 81.7911 97.313 81.7911C96.454 81.7911 96.0262 82.2951 96.0262 83.3396V83.9332H98.3707V84.8617H96.0396V91.1855H94.9381V84.8584Z" fill="#394049"/>
<path d="M104.684 81.3235H105.815V87.2129L111.569 81.3235H113.024L108.733 85.6311L113.213 91.1822H111.795L107.948 86.4104L105.815 88.5359V91.1822H104.684V81.3235Z" fill="#394049"/>
<path d="M120.694 87.5477C120.694 85.9825 119.508 84.7025 117.949 84.7025C116.349 84.7025 115.244 85.9858 115.244 87.5477C115.244 89.1129 116.419 90.3762 117.976 90.3762C119.579 90.3795 120.694 89.1129 120.694 87.5477ZM114.115 87.5477C114.115 85.4917 115.746 83.7441 117.979 83.7441C120.195 83.7441 121.826 85.4618 121.826 87.5477C121.826 89.6036 120.182 91.3511 117.949 91.3511C115.732 91.3545 114.115 89.6334 114.115 87.5477Z" fill="#394049"/>
<path d="M124.032 83.9H125.134V85.8001C125.676 84.5897 126.751 83.7143 128.152 83.774V84.9412H128.068C126.451 84.9412 125.134 86.082 125.134 88.2805V91.1821H124.032V83.9Z" fill="#394049"/>
<path d="M130.041 83.9H131.143V85.1701C131.629 84.3807 132.403 83.7441 133.677 83.7441C135.465 83.7441 136.509 84.928 136.509 86.6622V91.1821H135.408V86.9276C135.408 85.5779 134.663 84.7323 133.362 84.7323C132.089 84.7323 131.146 85.6475 131.146 87.0104V91.1821H130.045V83.9H130.041Z" fill="#394049"/>
<path d="M143.765 81.3235H150.959V82.3515H144.897V85.8731H150.319V86.8879H144.897V91.1822H143.765V81.3235Z" fill="#394049"/>
<path d="M158.386 87.1133C158.258 85.7902 157.484 84.6626 156.025 84.6626C154.752 84.6626 153.778 85.704 153.621 87.1133H158.386ZM156.227 90.4094C157.245 90.4094 157.959 90.0016 158.558 89.3814L159.246 89.9916C158.501 90.8074 157.601 91.3578 156.197 91.3578C154.166 91.3578 152.509 89.8191 152.509 87.5543C152.509 85.4386 154.011 83.7507 156.055 83.7507C158.241 83.7507 159.502 85.4685 159.502 87.6107C159.502 87.7102 159.502 87.8195 159.488 87.992H153.621C153.782 89.5208 154.924 90.4094 156.227 90.4094Z" fill="#394049"/>
<path d="M161.651 83.9H162.753V85.8001C163.296 84.5897 164.37 83.7143 165.772 83.774V84.9412H165.686C164.07 84.9412 162.753 86.082 162.753 88.2805V91.1821H161.651V83.9Z" fill="#394049"/>
<path d="M167.66 83.9H168.762V85.8001C169.305 84.5897 170.379 83.7143 171.78 83.774V84.9412H171.696C170.079 84.9412 168.762 86.082 168.762 88.2805V91.1821H167.66V83.9Z" fill="#394049"/>
<path d="M173.243 93.112L173.612 92.2532C173.969 92.4356 174.3 92.5186 174.775 92.5186C175.431 92.5186 175.846 92.1803 176.291 91.1523L172.926 83.9H174.141L176.833 89.9718L179.208 83.9H180.383L177.278 91.421C176.65 92.9263 175.933 93.4769 174.819 93.4769C174.202 93.4769 173.744 93.3508 173.243 93.112Z" fill="#394049"/>
<path d="M31.3414 64.71C34.4607 64.71 36.7445 62.5047 36.7445 59.1291C36.7445 55.8428 34.4135 53.5912 31.3414 53.5912C28.3535 53.5912 25.9787 55.7533 25.9787 59.1291C25.9754 62.3721 28.2626 64.71 31.3414 64.71ZM31.3414 48.9189C37.8897 48.9189 42.1071 53.2894 42.1071 59.1258C42.1071 64.9653 37.8897 69.3325 31.3414 69.3325C24.7929 69.3325 20.5723 64.9653 20.5723 59.1258C20.5723 53.2894 24.7929 48.9189 31.3414 48.9189Z" fill="#394049"/>
<path d="M54.2459 57.0168C52.2249 56.4565 50.48 55.9756 50.48 54.7586C50.48 54.0058 51.2918 53.21 52.8009 53.21C54.9297 53.21 56.9745 54.1948 58.076 55.0404L58.2074 55.14L60.2218 51.3563L60.1476 51.29C59.3257 50.5372 56.9374 48.7864 52.5416 48.7864C48.1221 48.7864 45.1511 51.2203 45.1511 54.8481C45.1511 59.2054 49.0417 60.2997 52.1677 61.1818C54.1349 61.7323 55.8325 62.2097 55.8325 63.3737C55.8325 64.6106 54.5627 65.055 53.3769 65.055C51.4266 65.055 48.4859 63.8976 47.3304 62.674L47.2159 62.5546L44.5986 66.0066L44.6558 66.0829C45.5754 67.469 49.301 69.4753 53.0334 69.4753C57.9716 69.4753 61.1649 66.9749 61.1649 63.1117C61.1548 58.9268 57.3249 57.8691 54.2459 57.0168Z" fill="#394049"/>
<path d="M97.8418 58.6947L104.875 68.8617H98.7209L94.1061 61.8517L89.316 68.8617H83.4717L90.5052 58.9534L83.9096 49.3932H90.1077L94.2846 55.8396L98.5896 49.3932H104.434L97.8418 58.6947Z" fill="#394049"/>
<path d="M112.977 55.7135V63.5825C114.337 64.4481 115.479 64.71 117.15 64.71C120.667 64.71 122.685 62.1997 122.685 58.9566C122.685 55.8429 120.839 53.5912 117.497 53.5912C115.786 53.5912 114.206 54.3672 112.977 55.7135ZM107.924 49.3964H112.98V51.2567C114.209 49.9568 116.537 48.9189 119.087 48.9189C124.534 48.9189 128.051 53.0739 128.051 58.8273C128.051 64.7531 123.921 69.3358 117.591 69.3358C115.837 69.3358 114.122 69.0341 112.98 68.3841V76.1835H107.924V49.3964Z" fill="#394049"/>
<path d="M135.71 57.3119H145.422C145.466 54.9309 143.795 53.0739 140.894 53.0739C137.866 53.0739 136.238 54.7585 135.71 57.3119ZM148.85 66.9118C146.874 68.5565 144.06 69.3325 141.292 69.3325C134.922 69.3325 130.657 65.2704 130.657 59.1258C130.657 53.4586 134.612 48.9189 141.114 48.9189C146.21 48.9189 150.474 52.5101 150.474 57.9619C150.474 59.1688 150.39 59.9084 150.168 60.6412H135.886C136.326 63.5825 138.701 65.1842 141.821 65.1842C144.236 65.1842 146.254 64.3186 147.398 63.41L148.85 66.9118Z" fill="#394049"/>
<path d="M154.563 49.3965H159.616V51.9631C160.539 50.7096 161.76 49.3965 164.131 49.3965C165.757 49.3965 166.546 49.4131 166.546 49.4131V53.9792C166.546 53.9792 164.595 53.7305 162.952 54.1849C161.307 54.6424 160.193 56.0021 159.62 57.1262V68.8584H154.567V49.3965H154.563Z" fill="#394049"/>
<path d="M169.001 43.5966H174.057V49.3964H180.427V54.0687H174.057V61.1619C174.057 63.2841 174.758 64.6635 176.428 64.6635C177.794 64.6635 178.759 64.06 179.46 63.5395L181 67.3893C179.814 68.3444 177.706 69.2928 175.156 69.2928C170.669 69.2928 169.001 66.4377 169.001 61.4636V43.5966Z" fill="#394049"/>
<path d="M79.4797 56.2374H73.2816C68.2929 56.2374 64.2305 52.2383 64.2305 47.3272C64.2305 42.4095 68.2929 38.4103 73.2816 38.4103H80.8777V43.5768H73.2816C71.1831 43.5768 69.4752 45.258 69.4752 47.3272C69.4752 49.3931 71.1831 51.0744 73.2816 51.0744H79.4797V56.2374Z" fill="#394049"/>
<path d="M80.8777 68.8983H73.285C68.2929 68.8983 64.2305 64.899 64.2305 59.9879C64.2305 55.0735 68.2929 51.0744 73.285 51.0744H80.5846V56.2374H73.285C71.1831 56.2374 69.4752 57.9187 69.4752 59.9879C69.4752 62.0538 71.1831 63.7351 73.285 63.7351H80.8777V68.8983Z" fill="#394049"/>
<path d="M8.03388 57.1794V52.0162C10.3716 52.0162 12.2748 50.1427 12.2748 47.8413C12.2748 45.54 10.375 43.6664 8.03388 43.6664H0V38.5H8.03388C13.2652 38.5 17.523 42.6882 17.523 47.8413C17.523 52.9945 13.2686 57.1794 8.03388 57.1794Z" fill="#394049"/>
<path d="M17.5235 68.9281H12.2788V61.3575C12.2788 59.0561 10.3755 57.1826 8.03779 57.1826H0.00390625V52.0195H8.03779C13.2691 52.0195 17.527 56.2076 17.527 61.3608V68.9281H17.5235Z" fill="#394049"/>
</g>
<path d="M101.896 13.4349L109.489 0.13028L117.569 13.4349H114.356L119.613 20.3412H115.719L121.657 27.5521H96.6396L103.064 20.3412H99.6573L105.011 13.4349H101.896Z" fill="#749B45"/>
<path d="M110.803 27.5521H107.493V37.4037H110.803V27.5521Z" fill="#C28562"/>
<path d="M110.804 27.5521H109.538V37.4037H110.804V27.5521Z" fill="#5F3F36"/>
<path d="M117.593 13.4477L109.489 0.142975C109.489 0.142975 114.88 10.9594 114.588 11.9623C114.296 12.9652 111.838 12.1274 112.045 13.3842C112.251 14.641 116.948 18.7289 116.474 19.2748C115.999 19.8207 112.75 18.894 112.75 20.392C112.75 21.8901 119.613 27.5521 119.613 27.5521H121.657L115.722 20.3412H119.616L114.353 13.4318L117.593 13.4477Z" fill="#637139"/>
<path d="M106.885 13.8412C107.57 13.8412 108.126 13.2615 108.126 12.5463C108.126 11.8311 107.57 11.2514 106.885 11.2514C106.199 11.2514 105.644 11.8311 105.644 12.5463C105.644 13.2615 106.199 13.8412 106.885 13.8412Z" fill="#F2FAA0"/>
<path d="M111.12 22.4232C111.806 22.4232 112.361 21.8435 112.361 21.1283C112.361 20.4132 111.806 19.8334 111.12 19.8334C110.435 19.8334 109.879 20.4132 109.879 21.1283C109.879 21.8435 110.435 22.4232 111.12 22.4232Z" fill="#AA6A46"/>
<path d="M127.097 30.3959H111.887V29.624L121.268 21.0407C122.747 19.6822 123.763 18.5914 124.316 17.768C124.868 16.9241 125.144 15.9979 125.144 14.9892C125.144 13.5896 124.612 12.4781 123.546 11.6547C122.481 10.8109 121.218 10.3889 119.758 10.3889H119.403C116.76 10.3889 114.718 11.4489 113.278 13.569L112.36 12.6736C113.149 11.4798 114.165 10.5741 115.408 9.95662C116.651 9.33912 118.012 9.03037 119.492 9.03037H119.847C121.702 9.03037 123.28 9.57588 124.582 10.6667C125.904 11.7577 126.565 13.1367 126.565 14.804C126.565 16.0802 126.2 17.2431 125.47 18.2929C124.74 19.3426 123.448 20.7114 121.593 22.3992L114.432 29.0065H127.097V30.3959ZM134.048 12.1796C136.061 10.0596 138.497 8.9995 141.358 8.9995C144.218 8.9995 146.655 10.0596 148.667 12.1796C150.699 14.2791 151.715 16.8212 151.715 19.8057C151.715 22.7904 150.699 25.3427 148.667 27.4627C146.655 29.5622 144.218 30.612 141.358 30.612C138.497 30.612 136.061 29.5622 134.048 27.4627C132.036 25.3427 131.03 22.7904 131.03 19.8057C131.03 16.8212 132.036 14.2791 134.048 12.1796ZM147.661 13.1367C145.945 11.3049 143.844 10.3889 141.358 10.3889C138.872 10.3889 136.761 11.3049 135.025 13.1367C133.308 14.9481 132.45 17.1711 132.45 19.8057C132.45 22.461 133.308 24.6943 135.025 26.5056C136.761 28.317 138.872 29.2226 141.358 29.2226C143.844 29.2226 145.945 28.317 147.661 26.5056C149.397 24.6943 150.265 22.461 150.265 19.8057C150.265 17.1711 149.397 14.9481 147.661 13.1367ZM170.851 30.3959H155.64V29.624L165.021 21.0407C166.501 19.6822 167.517 18.5914 168.069 17.768C168.622 16.9241 168.898 15.9979 168.898 14.9892C168.898 13.5896 168.365 12.4781 167.3 11.6547C166.235 10.8109 164.972 10.3889 163.512 10.3889H163.157C160.513 10.3889 158.471 11.4489 157.031 13.569L156.114 12.6736C156.903 11.4798 157.919 10.5741 159.162 9.95662C160.405 9.33912 161.766 9.03037 163.246 9.03037H163.601C165.455 9.03037 167.034 9.57588 168.336 10.6667C169.657 11.7577 170.318 13.1367 170.318 14.804C170.318 16.0802 169.953 17.2431 169.223 18.2929C168.494 19.3426 167.201 20.7114 165.347 22.3992L158.185 29.0065H170.851V30.3959ZM179.252 30.3959H177.831V12.1179L174.99 15.6685L173.984 14.8966L178.512 9.2465H179.252V30.3959Z" fill="#903F3D"/>
<defs>
<clipPath id="clip0">
<rect width="181" height="56" fill="white" transform="translate(0 38.4103)"/>
</clipPath>
</defs>
</svg>
