<?xml version="1.0" encoding="utf-8"?>
<!-- Svg Vector Icons : http://www.onlinewebfonts.com/icon -->
<!DOCTYPE svg PUBLIC "-//W3C//DTD SVG 1.1//EN" "http://www.w3.org/Graphics/SVG/1.1/DTD/svg11.dtd">
<svg version="1.1" xmlns="http://www.w3.org/2000/svg" xmlns:xlink="http://www.w3.org/1999/xlink" x="0px" y="0px" viewBox="0 0 1000 1000" enable-background="new 0 0 1000 1000" xml:space="preserve">
<metadata> Svg Vector Icons : http://www.onlinewebfonts.com/icon </metadata>
<g><path d="M366.8,723.7c84.5,0,164.4-29.3,228.4-82.8l33,33l-11,11c-5.8,5.8-9,13.5-9,21.7s3.2,15.9,9,21.7L870.1,981c6,6,13.8,9,21.7,9c7.8,0,15.7-3,21.7-9l67.6-67.6c5.8-5.8,9-13.5,9-21.7c0-8.1-3.2-15.9-9-21.7L728.1,617.2c-12-12-31.3-12-43.3,0l-13.4,13.4l-32.9-32.9c54.9-64.4,85-145.3,85-230.8c0-95.3-37.1-184.9-104.5-252.3C551.7,47.1,462.1,10,366.8,10c-95.3,0-184.9,37.1-252.3,104.5C47.1,182,10,271.5,10,366.9c0,95.3,37.1,184.9,104.5,252.3C181.9,686.6,271.5,723.7,366.8,723.7z M916,891.8L891.7,916L682.1,706.5l24.3-24.3L916,891.8z M157.8,157.9c55.8-55.8,130-86.6,209-86.6c79,0,153.2,30.7,209,86.6c55.8,55.8,86.6,130.1,86.6,209c0,79-30.7,153.2-86.6,209c-55.8,55.8-130.1,86.6-209,86.6c-79,0-153.2-30.7-209-86.6c-55.8-55.8-86.6-130.1-86.6-209C71.2,287.9,101.9,213.7,157.8,157.9z" fill="#ffffff"/></g>
</svg>