<svg width="23" height="16" viewBox="0 0 23 16" fill="none" xmlns="http://www.w3.org/2000/svg">
<path d="M23 8C23 12.4183 19.4183 16 15 16V14C18.3137 14 21 11.3137 21 8C21 4.68629 18.3137 2 15 2V0C19.4183 0 23 3.58172 23 8Z" fill="#ADBDCD"/>
<path d="M19 8C19 10.2091 17.2091 12 15 12V10C16.1046 10 17 9.10457 17 8C17 6.89543 16.1046 6 15 6V4C17.2091 4 19 5.79086 19 8Z" fill="#ADBDCD"/>
<path fill-rule="evenodd" clip-rule="evenodd" d="M8 12L14 16V0L8 4H4C1.79086 4 0 5.79086 0 8C0 10.2091 1.79086 12 4 12H8ZM4 6H8L12 3.5V12.5L8 10H4C2.89543 10 2 9.10457 2 8C2 6.89543 2.89543 6 4 6Z" fill="#ADBDCD"/>
</svg>
