<svg width="25" height="16" viewBox="0 0 25 16" fill="none" xmlns="http://www.w3.org/2000/svg">
<path fill-rule="evenodd" clip-rule="evenodd" d="M8 12L14 16V0L8 4H4C1.79086 4 0 5.79086 0 8C0 10.2091 1.79086 12 4 12H8ZM4 6H8L12 3.5V12.5L8 10H4C2.89543 10 2 9.10457 2 8C2 6.89543 2.89543 6 4 6Z" fill="#ADBDCD"/>
<path d="M24.3799 11.8426C24.7224 11.5001 24.7224 10.9448 24.3799 10.6023L17.8604 4.08292C17.5179 3.74043 16.9626 3.74043 16.6201 4.08292C16.2776 4.42542 16.2776 4.98072 16.6201 5.32322L23.1396 11.8426C23.4821 12.1851 24.0374 12.1851 24.3799 11.8426Z" fill="#ADBDCD"/>
<path d="M16.6201 11.8426C16.2776 11.5001 16.2776 10.9448 16.6201 10.6023L23.1396 4.08292C23.4821 3.74043 24.0374 3.74043 24.3799 4.08292C24.7224 4.42542 24.7224 4.98072 24.3799 5.32322L17.8604 11.8426C17.5179 12.1851 16.9626 12.1851 16.6201 11.8426Z" fill="#ADBDCD"/>
</svg>
