<svg width="37" height="22" viewBox="0 0 37 22" fill="none" xmlns="http://www.w3.org/2000/svg">
<path fill-rule="evenodd" clip-rule="evenodd" d="M36.1543 1.62963C36.4124 0.769148 36.1543 0.166809 34.9496 0.166809H30.934C29.9014 0.166809 29.4425 0.711783 29.1844 1.31412C29.1844 1.31412 27.1479 6.30493 24.2509 9.51741C23.3044 10.4639 22.9028 10.7508 22.3865 10.7508C22.1284 10.7508 21.7555 10.4639 21.7555 9.60345V1.62963C21.7555 0.597051 21.4687 0.166809 20.6082 0.166809H14.298C13.667 0.166809 13.2654 0.654416 13.2654 1.08466C13.2654 2.05987 14.6995 2.28934 14.8716 4.98552V10.8942C14.8716 12.1849 14.6422 12.4144 14.1259 12.4144C12.7778 12.4144 9.45059 7.42356 7.50016 1.687C7.09861 0.625735 6.72573 0.166809 5.69315 0.166809H1.67756C0.530243 0.166809 0.300781 0.711783 0.300781 1.31412C0.300781 2.37539 1.64887 7.65302 6.63968 14.6229C9.96689 19.3843 14.6422 21.9657 18.8872 21.9657C21.44 21.9657 21.7555 21.3921 21.7555 20.4169V16.8028C21.7555 15.6555 21.985 15.4261 22.8168 15.4261C23.4191 15.4261 24.423 15.7129 26.8037 18.0075C29.5286 20.7324 29.9875 21.9657 31.5077 21.9657H35.5233C36.6706 21.9657 37.2442 21.3921 36.9 20.2735C36.5272 19.1548 35.2364 17.5199 33.5155 15.5695C32.5689 14.4508 31.1635 13.2749 30.7619 12.6725C30.1596 11.8981 30.3317 11.5539 30.7619 10.8942C30.7619 10.8655 35.6667 3.98162 36.1543 1.62963Z" fill="#5181B8"/>
</svg>
