<svg width="37" height="37" viewBox="0 0 37 37" fill="none" xmlns="http://www.w3.org/2000/svg">
<g clip-path="url(#clip0)">
<path d="M18.5 37.0001C28.7173 37.0001 37 28.7173 37 18.5001C37 8.28279 28.7173 6.10352e-05 18.5 6.10352e-05C8.28273 6.10352e-05 0 8.28279 0 18.5001C0 28.7173 8.28273 37.0001 18.5 37.0001Z" fill="#3C5A9A"/>
<path d="M24.5176 5.67847H20.4194C17.9873 5.67847 15.2823 6.70134 15.2823 10.2266C15.2941 11.455 15.2823 12.6314 15.2823 13.9553H12.4688V18.4325H15.3693V31.3213H20.6993V18.3474H24.2172L24.5355 13.9428H20.6074C20.6074 13.9428 20.6162 11.9834 20.6074 11.4144C20.6074 10.0213 22.057 10.1011 22.1442 10.1011C22.834 10.1011 24.1753 10.1031 24.5196 10.1011V5.67847H24.5176Z" fill="white"/>
</g>
<defs>
<clipPath id="clip0">
<rect width="37" height="37" fill="white"/>
</clipPath>
</defs>
</svg>
