<svg width="37" height="37" viewBox="0 0 37 37" fill="none" xmlns="http://www.w3.org/2000/svg">
<path d="M13.1131 0.915894H23.9017C33.7561 0.915894 36.0824 3.26045 36.0824 13.1149V23.9035C36.0824 33.758 33.7378 36.0842 23.8834 36.0842H13.0948C3.2403 36.0842 0.914062 33.7397 0.914062 23.8852V13.0966C0.914062 3.26045 3.25862 0.915894 13.1131 0.915894Z" fill="#5181B8"/>
<path d="M0 0H37V37H0V0Z" fill="#5181B8"/>
<path fill-rule="evenodd" clip-rule="evenodd" d="M29.7124 13.0234C29.8773 12.4739 29.7124 12.0892 28.9431 12.0892H26.3788C25.7194 12.0892 25.4263 12.4373 25.2615 12.8219C25.2615 12.8219 23.961 16.009 22.111 18.0605C21.5065 18.665 21.2501 18.8481 20.9204 18.8481C20.7555 18.8481 20.5174 18.665 20.5174 18.1155V13.0234C20.5174 12.364 20.3342 12.0892 19.7847 12.0892H15.755C15.3521 12.0892 15.0956 12.4006 15.0956 12.6754C15.0956 13.2981 16.0115 13.4447 16.1214 15.1665V18.9397C16.1214 19.764 15.9748 19.9105 15.6451 19.9105C14.7842 19.9105 12.6595 16.7234 11.4139 13.06C11.1575 12.3823 10.9194 12.0892 10.26 12.0892H7.69561C6.96294 12.0892 6.81641 12.4373 6.81641 12.8219C6.81641 13.4996 7.6773 16.8699 10.8644 21.3209C12.9892 24.3615 15.9748 26.01 18.6857 26.01C20.3159 26.01 20.5174 25.6437 20.5174 25.0209V22.713C20.5174 21.9803 20.6639 21.8338 21.1951 21.8338C21.5798 21.8338 22.2209 22.017 23.7412 23.4823C25.4813 25.2224 25.7743 26.01 26.7451 26.01H29.3095C30.0422 26.01 30.4085 25.6437 30.1887 24.9293C29.9506 24.215 29.1263 23.1709 28.0273 21.9254C27.4228 21.211 26.5253 20.46 26.2689 20.0754C25.8842 19.5808 25.9941 19.361 26.2689 18.9397C26.2689 18.9214 29.4011 14.5254 29.7124 13.0234Z" fill="white"/>
</svg>
